<svg xmlns="http://www.w3.org/2000/svg" style="display: none;">
    <symbol  width="16" height="16" viewBox="0 0 16 16" fill="none" xmlns="http://www.w3.org/2000/svg">
        <rect width="16" height="16" rx="8" fill="#F7931A"/>
        <path d="M11.5267 6.86218C11.6859 5.79755 10.8754 5.22527 9.76706 4.84351L10.1266 3.40138L9.24875 3.18264L8.89873 4.5868C8.66795 4.52924 8.43094 4.475 8.19538 4.42123L8.54794 3.00781L7.67062 2.78906L7.31087 4.23072C7.11989 4.18724 6.93231 4.14426 6.75032 4.09898L6.75134 4.09445L5.54074 3.79214L5.30722 4.72976C5.30722 4.72976 5.95852 4.87905 5.9448 4.88824C6.30028 4.97697 6.36457 5.21229 6.35389 5.39881L5.94433 7.04174C5.96881 7.04796 6.00056 7.05695 6.03559 7.07103C6.00631 7.06375 5.97514 7.05582 5.9428 7.04807L5.36873 9.34957C5.32528 9.45758 5.21501 9.61966 4.96647 9.55811C4.97527 9.57086 4.32842 9.39888 4.32842 9.39888L3.89258 10.4038L5.03498 10.6885C5.24751 10.7418 5.45577 10.7976 5.66087 10.85L5.2976 12.3087L6.17445 12.5275L6.5342 11.0843C6.77375 11.1493 7.00621 11.2093 7.2338 11.2658L6.87526 12.7022L7.75317 12.921L8.1164 11.465C9.61335 11.7483 10.7389 11.6341 11.2127 10.2801C11.5945 9.18999 11.1937 8.56121 10.4062 8.15118C10.9798 8.01889 11.4118 7.64162 11.527 6.86229L11.5267 6.8621L11.5267 6.86218ZM9.52099 9.67472C9.24969 10.7648 7.41426 10.1756 6.81918 10.0278L7.30125 8.0953C7.89628 8.24385 9.80452 8.53783 9.52102 9.67472H9.52099ZM9.79248 6.84638C9.54499 7.83796 8.01735 7.33419 7.52179 7.21066L7.95885 5.45802C8.4544 5.58154 10.0503 5.8121 9.79256 6.84638H9.79248Z" fill="white"/>
    </symbol>
    <symbol id="bitcoin" fill="none" xmlns="http://www.w3.org/2000/svg">
        <path d="M23.75 12C23.75 18.0751 18.8251 23 12.75 23C6.67487 23 1.75 18.0751 1.75 12C1.75 5.92487 6.67487 1 12.75 1C18.8251 1 23.75 5.92487 23.75 12Z" fill="#F7931A"/>
        <path d="M18.292 10.212C18.5422 8.53901 17.2685 7.63972 15.5268 7.0398L16.0918 4.7736L14.7123 4.42986L14.1623 6.63639C13.7996 6.54594 13.4272 6.46071 13.057 6.37622L13.611 4.15512L12.2324 3.81138L11.6671 6.07685C11.367 6.00852 11.0722 5.94099 10.7862 5.86983L10.7878 5.8627L8.88545 5.38765L8.51848 6.86105C8.51848 6.86105 9.54196 7.09566 9.52039 7.1101C10.079 7.24952 10.18 7.61932 10.1633 7.91242L9.51966 10.4942C9.55812 10.5039 9.60802 10.5181 9.66308 10.5402C9.61705 10.5288 9.56808 10.5163 9.51726 10.5041L8.61514 14.1208C8.54687 14.2905 8.37359 14.5452 7.98303 14.4485C7.99685 14.4685 6.98038 14.1982 6.98038 14.1982L6.29548 15.7773L8.09068 16.2249C8.42465 16.3086 8.75192 16.3962 9.07422 16.4786L8.50337 18.7708L9.88128 19.1146L10.4466 16.8467C10.823 16.9489 11.1883 17.0432 11.546 17.132L10.9825 19.3892L12.3621 19.7329L12.9329 17.445C15.2853 17.8902 17.054 17.7107 17.7985 15.583C18.3985 13.87 17.7687 12.8819 16.5311 12.2376C17.4325 12.0297 18.1109 11.4366 18.292 10.212ZM15.1401 14.6317C14.7138 16.3447 11.8295 15.4187 10.8944 15.1865L11.652 12.1498C12.587 12.3832 15.5856 12.8452 15.1401 14.6317ZM15.5668 10.1872C15.1778 11.7454 12.7773 10.9537 11.9985 10.7596L12.6853 8.00546C13.4641 8.19957 15.9718 8.56187 15.5668 10.1872Z" fill="white"/>
    </symbol>
    <symbol id="arrows-cyrcle" width="12" height="12" viewBox="0 0 12 12" fill="none" xmlns="http://www.w3.org/2000/svg">
        <path fill-rule="evenodd" clip-rule="evenodd" d="M1.60265 4.2428C2.28475 2.49949 4.07615 1.2428 6.07664 1.2428C8.28922 1.2428 10.1413 2.78639 10.611 4.85358C10.6722 5.12286 10.94 5.29155 11.2093 5.23037C11.4786 5.16919 11.6473 4.9013 11.5861 4.63202C11.0151 2.11866 8.76545 0.242798 6.07664 0.242798C4.21766 0.242798 2.49657 1.14248 1.42712 2.54019V1.31423C1.42712 1.03808 1.20326 0.814226 0.927118 0.814226C0.650976 0.814226 0.427118 1.03808 0.427118 1.31423V4.7428C0.427118 5.01894 0.650976 5.2428 0.927118 5.2428H4.07404C4.35019 5.2428 4.57404 5.01894 4.57404 4.7428C4.57404 4.46666 4.35019 4.2428 4.07404 4.2428H1.60265ZM10.4101 7.755C9.72796 9.49832 7.93657 10.755 5.93608 10.755C3.7235 10.755 1.87142 9.21141 1.40175 7.14423C1.34056 6.87495 1.07267 6.70625 0.803392 6.76743C0.534113 6.82861 0.365416 7.0965 0.426598 7.36578C0.99765 9.87915 3.24727 11.755 5.93608 11.755C7.79505 11.755 9.51615 10.8553 10.5856 9.45762V10.6836C10.5856 10.9597 10.8095 11.1836 11.0856 11.1836C11.3617 11.1836 11.5856 10.9597 11.5856 10.6836V7.255C11.5856 6.97886 11.3617 6.755 11.0856 6.755H7.93867C7.66253 6.755 7.43867 6.97886 7.43867 7.255C7.43867 7.53115 7.66253 7.755 7.93867 7.755H10.4101Z" fill="white"/>
    </symbol>
    <symbol id="ton" width="24" height="24" viewBox="0 0 24 24" fill="none" xmlns="http://www.w3.org/2000/svg">
        <circle cx="12.75" cy="12" r="11" fill="#0098EA"/>
        <path d="M16.8491 6.59998H8.65416C7.14738 6.59998 6.19236 8.22536 6.9504 9.53928L12.0081 18.3056C12.3381 18.878 13.1652 18.878 13.4952 18.3056L18.5539 9.53928C19.3109 8.22742 18.3559 6.59998 16.8502 6.59998H16.8491ZM12.0039 15.6768L10.9025 13.545L8.24472 8.79156C8.06939 8.48732 8.28597 8.09747 8.65313 8.09747H12.0029V15.6778L12.0039 15.6768ZM17.2565 8.79053L14.5998 13.546L13.4983 15.6768V8.09644H16.8481C17.2153 8.09644 17.4319 8.48629 17.2565 8.79053Z" fill="white"/>
    </symbol>
    <symbol id="burger" width="24" height="24" viewBox="0 0 24 24" fill="none" xmlns="http://www.w3.org/2000/svg">
        <path fill-rule="evenodd" clip-rule="evenodd" d="M3 7C3 6.44772 3.44772 6 4 6H20C20.5523 6 21 6.44772 21 7C21 7.55228 20.5523 8 20 8H4C3.44772 8 3 7.55228 3 7ZM3 17C3 16.4477 3.44772 16 4 16H20C20.5523 16 21 16.4477 21 17C21 17.5523 20.5523 18 20 18H4C3.44772 18 3 17.5523 3 17ZM4 11C3.44772 11 3 11.4477 3 12C3 12.5523 3.44772 13 4 13H20C20.5523 13 21 12.5523 21 12C21 11.4477 20.5523 11 20 11H4Z" fill="white"/>
    </symbol>
    <symbol id="plus" width="24" height="24" viewBox="0 0 24 24" fill="none" xmlns="http://www.w3.org/2000/svg">
        <path d="M12 3V12M12 12V21M12 12H3M12 12H21" stroke="white" stroke-width="2" stroke-linecap="round" stroke-linejoin="round"/>
    </symbol>
    <symbol id="flag" width="16" height="16" viewBox="0 0 16 16" fill="none" xmlns="http://www.w3.org/2000/svg">
        <path d="M9.26667 3.66671L9.10667 2.86671C9.04667 2.56004 8.77333 2.33337 8.45333 2.33337H3.66667C3.3 2.33337 3 2.63337 3 3.00004V13C3 13.3667 3.3 13.6667 3.66667 13.6667C4.03333 13.6667 4.33333 13.3667 4.33333 13V9.00004H8.06667L8.22667 9.80004C8.28667 10.1134 8.56 10.3334 8.88 10.3334H12.3333C12.7 10.3334 13 10.0334 13 9.66671V4.33337C13 3.96671 12.7 3.66671 12.3333 3.66671H9.26667Z" fill="white"/>
    </symbol>
    <symbol id="arrow-up" width="24" height="24" viewBox="0 0 24 24" fill="none" xmlns="http://www.w3.org/2000/svg">
        <path fill-rule="evenodd" clip-rule="evenodd" d="M11.356 8.23948C11.7117 7.92017 12.2883 7.92017 12.644 8.23948L19.7333 14.6042C20.0889 14.9235 20.0889 15.4412 19.7333 15.7605C19.3776 16.0798 18.801 16.0798 18.4453 15.7605L12 9.97392L5.55467 15.7605C5.19901 16.0798 4.62239 16.0798 4.26674 15.7605C3.91109 15.4412 3.91109 14.9235 4.26674 14.6042L11.356 8.23948Z" fill="white"/>
    </symbol>
    <svg id="arrow-down" width="24" height="24" viewBox="0 0 24 24" fill="none" xmlns="http://www.w3.org/2000/svg">
        <path fill-rule="evenodd" clip-rule="evenodd" d="M12.644 15.7605C12.2883 16.0798 11.7117 16.0798 11.356 15.7605L4.26674 9.39578C3.91109 9.07647 3.91109 8.55878 4.26674 8.23948C4.62239 7.92018 5.19901 7.92018 5.55467 8.23948L12 14.0261L18.4453 8.23948C18.801 7.92017 19.3776 7.92017 19.7333 8.23948C20.0889 8.55878 20.0889 9.07647 19.7333 9.39577L12.644 15.7605Z" fill="white"/>
    </svg>
    <symbol id="arrow-right" width="24" height="24" viewBox="0 0 24 24" fill="none" xmlns="http://www.w3.org/2000/svg">
        <path fill-rule="evenodd" clip-rule="evenodd" d="M15.7605 11.356C16.0798 11.7117 16.0798 12.2883 15.7605 12.644L9.39578 19.7333C9.07647 20.0889 8.55878 20.0889 8.23948 19.7333C7.92018 19.3776 7.92018 18.801 8.23948 18.4453L14.0261 12L8.23948 5.55467C7.92017 5.19901 7.92017 4.62239 8.23948 4.26674C8.55878 3.91109 9.07647 3.91109 9.39577 4.26674L15.7605 11.356Z" fill="white"/>
    </symbol>
    <symbol id="persons" width="16" height="16" viewBox="0 0 16 16" fill="none" xmlns="http://www.w3.org/2000/svg">
        <path d="M5.99967 1.33337C4.25301 1.33337 2.83301 2.75337 2.83301 4.50004C2.83301 6.21337 4.17301 7.60004 5.91967 7.66004C5.97301 7.65337 6.02634 7.65337 6.06634 7.66004C6.07967 7.66004 6.08634 7.66004 6.09967 7.66004C6.10634 7.66004 6.10634 7.66004 6.11301 7.66004C7.81967 7.60004 9.15967 6.21337 9.16634 4.50004C9.16634 2.75337 7.74634 1.33337 5.99967 1.33337Z" fill="white"/>
        <path d="M9.38762 9.4333C7.52762 8.1933 4.49428 8.1933 2.62095 9.4333C1.77428 9.99996 1.30762 10.7666 1.30762 11.5866C1.30762 12.4066 1.77428 13.1666 2.61428 13.7266C3.54762 14.3533 4.77428 14.6666 6.00095 14.6666C7.22762 14.6666 8.45428 14.3533 9.38762 13.7266C10.2276 13.16 10.6943 12.4 10.6943 11.5733C10.6876 10.7533 10.2276 9.9933 9.38762 9.4333Z" fill="white"/>
        <path d="M13.3263 4.89344C13.4329 6.18677 12.5129 7.32011 11.2396 7.47344C11.2329 7.47344 11.2329 7.47344 11.2263 7.47344H11.2063C11.1663 7.47344 11.1263 7.47344 11.0929 7.48677C10.4462 7.52011 9.85292 7.31344 9.40625 6.93344C10.0929 6.32011 10.4863 5.40011 10.4063 4.40011C10.3596 3.86011 10.1729 3.36677 9.89292 2.94677C10.1463 2.82011 10.4396 2.74011 10.7396 2.71344C12.0463 2.60011 13.2129 3.57344 13.3263 4.89344Z" fill="white"/>
        <path d="M14.6605 11.0599C14.6071 11.7066 14.1938 12.2666 13.5005 12.6466C12.8338 13.0133 11.9938 13.1866 11.1605 13.1666C11.6405 12.7333 11.9205 12.1933 11.9738 11.6199C12.0405 10.7933 11.6471 9.99994 10.8605 9.36661C10.4138 9.01327 9.89382 8.73327 9.32715 8.52661C10.8005 8.09994 12.6538 8.38661 13.7938 9.30661C14.4071 9.79994 14.7205 10.4199 14.6605 11.0599Z" fill="white"/>
    </symbol>
    <symbol id="wallet" width="24" height="24" viewBox="0 0 24 24" fill="none" xmlns="http://www.w3.org/2000/svg">
        <path d="M2 9.07273C2 7.64714 2 6.93435 2.30865 6.38984C2.58015 5.91088 3.01337 5.52148 3.54622 5.27744C4.15199 5 4.94498 5 6.53097 5H16.5841C18.1701 5 18.9631 5 19.5688 5.27744C20.1017 5.52148 20.5349 5.91088 20.8064 6.38984C21.0428 6.80689 21.0981 7.32266 21.1111 8.18182H16.1593C14.8398 8.18182 14.1801 8.18182 13.6597 8.37558C12.9658 8.63393 12.4145 9.12946 12.1271 9.75317C11.9115 10.221 11.9115 10.814 11.9115 12C11.9115 13.186 11.9115 13.779 12.1271 14.2468C12.4145 14.8705 12.9658 15.3661 13.6597 15.6244C14.1801 15.8182 14.8398 15.8182 16.1593 15.8182H21.1111C21.0981 16.6773 21.0428 17.1931 20.8064 17.6102C20.5349 18.0891 20.1017 18.4785 19.5688 18.7226C18.9631 19 18.1701 19 16.5841 19H6.53097C4.94498 19 4.15199 19 3.54622 18.7226C3.01337 18.4785 2.58015 18.0891 2.30865 17.6102C2 17.0657 2 16.3529 2 14.9273V9.07273Z" fill="white"/>
        <path fill-rule="evenodd" clip-rule="evenodd" d="M13.1504 11.8409C13.1504 10.9499 13.1504 10.5044 13.3434 10.1641C13.513 9.86476 13.7838 9.62138 14.1168 9.46885C14.4954 9.29545 14.9911 9.29545 15.9823 9.29545H19.1681C20.1594 9.29545 20.655 9.29545 21.0336 9.46885C21.3666 9.62138 21.6374 9.86476 21.8071 10.1641C22 10.5044 22 10.9499 22 11.8409V12.1591C22 13.0501 22 13.4956 21.8071 13.8359C21.6374 14.1352 21.3666 14.3786 21.0336 14.5311C20.655 14.7045 20.1594 14.7045 19.1681 14.7045H15.9823C14.9911 14.7045 14.4954 14.7045 14.1168 14.5311C13.7838 14.3786 13.513 14.1352 13.3434 13.8359C13.1504 13.4956 13.1504 13.0501 13.1504 12.1591V11.8409ZM17.5752 12C17.5752 12.7029 16.9413 13.2727 16.1593 13.2727C15.3773 13.2727 14.7434 12.7029 14.7434 12C14.7434 11.2971 15.3773 10.7273 16.1593 10.7273C16.9413 10.7273 17.5752 11.2971 17.5752 12Z" fill="white"/>
    </symbol>
    <symbol id="cross" width="24" height="24" viewBox="0 0 24 24" fill="none" xmlns="http://www.w3.org/2000/svg">
        <path fill-rule="evenodd" clip-rule="evenodd" d="M4.29289 4.29289C4.68342 3.90237 5.31658 3.90237 5.70711 4.29289L12 10.5858L18.2929 4.29289C18.6834 3.90237 19.3166 3.90237 19.7071 4.29289C20.0976 4.68342 20.0976 5.31658 19.7071 5.70711L13.4142 12L19.7071 18.2929C20.0976 18.6834 20.0976 19.3166 19.7071 19.7071C19.3166 20.0976 18.6834 20.0976 18.2929 19.7071L12 13.4142L5.70711 19.7071C5.31658 20.0976 4.68342 20.0976 4.29289 19.7071C3.90237 19.3166 3.90237 18.6834 4.29289 18.2929L10.5858 12L4.29289 5.70711C3.90237 5.31658 3.90237 4.68342 4.29289 4.29289Z" fill="white"/>
    </symbol>
    <symbol id="handshake" width="24" height="24" viewBox="0 0 24 24" fill="none" xmlns="http://www.w3.org/2000/svg">
        <path d="M17.6001 4C19.2641 4 20.4001 5.252 20.4001 6.80001C20.4001 8.24401 19.4134 9.43201 17.9241 9.58001C17.8168 9.5949 17.7085 9.60158 17.6001 9.60001C15.9361 9.60001 14.8001 8.34801 14.8001 6.80001C14.8 6.62108 14.8166 6.44254 14.8495 6.26667C15.0775 4.976 16.1335 4 17.6001 4Z" fill="white"/>
        <path d="M21.8828 19.8828C21.9579 19.8078 22 19.7061 22 19.6V19.5871C22 17.9852 22.0002 9.8822 18.1467 10.2066C16.764 10.3266 16.32 11.1133 16.004 12.0813C15.9439 12.2654 15.8886 12.4559 15.8325 12.6493C15.5932 13.4735 15.3382 14.3516 14.632 15.0147L14.524 15.1107C14.3813 15.2238 14.2317 15.328 14.076 15.4227C14.0238 15.4586 13.9689 15.4907 13.912 15.5187C13.8936 15.5292 13.8752 15.538 13.8557 15.5473C13.8455 15.5522 13.835 15.5572 13.824 15.5627C13.3839 15.79 12.9049 15.9325 12.412 15.9827H12.38C12.2561 15.9987 12.1281 15.9987 12.0041 15.9987C11.8801 15.9987 11.7521 15.9947 11.6321 15.9827C11.6074 16.2544 11.5967 16.5272 11.6001 16.8C11.5992 16.8272 11.6037 16.8542 11.6135 16.8796C11.6233 16.905 11.6381 16.9281 11.657 16.9476C11.6759 16.9672 11.6986 16.9827 11.7236 16.9933C11.7486 17.0039 11.7755 17.0093 11.8027 17.0093H12.396C12.4231 17.0089 12.45 17.0141 12.4749 17.0245C12.4999 17.0349 12.5225 17.0504 12.5412 17.0699C12.56 17.0894 12.5745 17.1125 12.584 17.1379C12.5934 17.1633 12.5975 17.1903 12.596 17.2173C12.576 17.6046 12.576 17.9927 12.596 18.38C12.648 18.376 12.7001 18.372 12.748 18.364C12.912 18.348 13.072 18.32 13.228 18.292C13.2709 18.2834 13.3184 18.2725 13.3625 18.2625C13.4006 18.2537 13.4362 18.2456 13.464 18.24C13.5135 18.2301 13.5603 18.2175 13.6088 18.2044C13.6191 18.2016 13.6295 18.1988 13.64 18.196C13.7307 18.172 13.8027 18.152 13.9067 18.12C14.0107 18.088 14.1187 18.052 14.2147 18.016C14.2309 18.0099 14.2468 18.004 14.2625 17.9982C14.3405 17.9693 14.4149 17.9417 14.4947 17.904C14.5285 17.888 14.5623 17.8727 14.596 17.8575C14.6578 17.8295 14.7191 17.8018 14.7787 17.7707C15.0666 17.6337 15.3435 17.4746 15.6067 17.2947C15.6574 17.6479 15.6801 18.0045 15.6747 18.3613C15.6747 18.7027 15.656 19.236 15.6307 19.636C15.6276 19.6827 15.6341 19.7295 15.6499 19.7736C15.6656 19.8177 15.6903 19.858 15.7223 19.8921C15.7543 19.9263 15.793 19.9535 15.836 19.972C15.8789 19.9906 15.9252 20.0001 15.972 20H21.6C21.7061 20 21.8078 19.9579 21.8828 19.8828Z" fill="white"/>
        <path d="M6.39995 4C4.73729 4 3.59997 5.252 3.59997 6.80001C3.59997 8.24401 4.5893 9.43201 6.07595 9.58001C6.18329 9.59485 6.2916 9.60154 6.39995 9.60001C8.06394 9.60001 9.19994 8.34801 9.19994 6.80001C9.20091 6.62117 9.18528 6.44262 9.15327 6.26667C8.92661 4.976 7.86661 4 6.39995 4Z" fill="white"/>
        <path d="M12.4386 18.3853C12.4922 18.3854 12.5457 18.3814 12.5986 18.3733L12.5999 18.3693C12.5796 17.9824 12.5796 17.5948 12.5999 17.208C12.6014 17.1809 12.5973 17.1538 12.5879 17.1283C12.5785 17.1029 12.564 17.0797 12.5452 17.06C12.5265 17.0404 12.5039 17.0249 12.4789 17.0143C12.454 17.0037 12.4271 16.9984 12.3999 16.9986H11.8013C11.7483 16.9986 11.6975 16.9778 11.6599 16.9406C11.6222 16.9034 11.6008 16.8529 11.6001 16.8C11.5978 16.5285 11.6092 16.257 11.6346 15.9866C11.1067 15.9396 10.5938 15.7863 10.1266 15.536C10.052 15.5008 9.97987 15.4607 9.91063 15.416C9.90215 15.4107 9.89378 15.4056 9.8855 15.4006C9.84298 15.3746 9.80281 15.3501 9.76263 15.32C9.69063 15.2745 9.62119 15.2251 9.55463 15.172C8.70783 14.4956 8.4303 13.5425 8.17072 12.6511C8.1115 12.4477 8.05321 12.2476 7.9893 12.0546C7.68264 11.0999 7.23331 10.3213 5.85598 10.2053C1.99978 9.88226 1.99996 17.9758 2 19.5854V19.6C2 19.706 2.04214 19.8078 2.11716 19.8828C2.19217 19.9578 2.29391 20 2.4 20H8.0253C8.07375 19.9999 8.12166 19.9899 8.16605 19.9705C8.21043 19.951 8.25033 19.9227 8.28325 19.8871C8.31616 19.8516 8.34139 19.8096 8.35734 19.7639C8.3733 19.7181 8.37964 19.6696 8.37597 19.6213C8.35064 19.228 8.3333 18.7 8.3333 18.3586C8.3277 18.0018 8.35044 17.6452 8.4013 17.292C8.46397 17.3413 8.53064 17.3853 8.5973 17.4253C8.61953 17.4386 8.64205 17.452 8.66457 17.4653C8.7096 17.492 8.75464 17.5186 8.7973 17.5453C8.8613 17.5853 8.9293 17.6213 9.0013 17.6573C9.08022 17.7032 9.16169 17.7446 9.2453 17.7813C9.29498 17.8054 9.34665 17.8279 9.39617 17.8495C9.43702 17.8673 9.4764 17.8844 9.51196 17.9013C9.5639 17.9259 9.617 17.9465 9.6705 17.9673C9.69803 17.9779 9.72566 17.9886 9.7533 18C9.92869 18.0746 10.1097 18.1352 10.2946 18.1813L10.5506 18.2413C10.6306 18.2613 10.7066 18.2773 10.7866 18.2933C10.9426 18.3213 11.1026 18.3493 11.2666 18.3653C11.3146 18.3733 11.3666 18.3813 11.4186 18.3813H11.5106C11.5303 18.3825 11.5503 18.3842 11.5706 18.3859C11.6147 18.3895 11.66 18.3933 11.7066 18.3933H11.7133C11.8093 18.4013 11.9053 18.4013 12.0053 18.4013C12.0558 18.4013 12.1053 18.3993 12.1543 18.3972C12.2023 18.3952 12.2498 18.3933 12.2973 18.3933H12.3053C12.3312 18.3933 12.3557 18.3911 12.3789 18.389C12.3998 18.3871 12.4197 18.3853 12.4386 18.3853Z" fill="white"/>
    </symbol>
    <symbol id="support" width="24" height="24" viewBox="0 0 24 24" fill="none" xmlns="http://www.w3.org/2000/svg">
        <path fill-rule="evenodd" clip-rule="evenodd" d="M11.9814 4.14264C11.3842 4.13186 10.7908 4.23894 10.235 4.45777C9.67926 4.67661 9.17211 5.00289 8.74259 5.41794C8.31308 5.83299 7.96962 6.32868 7.73189 6.87662C7.49416 7.42456 7.36681 8.014 7.35714 8.61121V14.8569C7.35714 15.2358 7.20663 15.5992 6.93872 15.8671C6.67081 16.135 6.30745 16.2855 5.92857 16.2855H4.14286C3.57454 16.2855 3.02949 16.0597 2.62763 15.6579C2.22576 15.256 2 14.711 2 14.1426V11.2855C2 10.7172 2.22576 10.1721 2.62763 9.77027C3.02949 9.3684 3.57454 9.14264 4.14286 9.14264H5.21429V8.5855C5.22732 7.70749 5.41319 6.84064 5.76128 6.03448C6.10936 5.22831 6.61285 4.49861 7.24298 3.88705C7.87311 3.27549 8.61755 2.79405 9.43376 2.47023C10.25 2.14641 11.122 1.98655 12 1.99978C12.878 1.98655 13.75 2.14641 14.5662 2.47023C15.3825 2.79405 16.1269 3.27549 16.757 3.88705C17.3872 4.49861 17.8906 5.22831 18.2387 6.03448C18.5868 6.84064 18.7727 7.70749 18.7857 8.5855V9.14264H19.8571C20.4255 9.14264 20.9705 9.3684 21.3724 9.77027C21.7742 10.1721 22 10.7172 22 11.2855V14.1426C22 14.711 21.7742 15.256 21.3724 15.6579C20.9705 16.0597 20.4255 16.2855 19.8571 16.2855H18.7857V16.9998C18.7859 17.9651 18.4306 18.8968 17.7877 19.6169C17.1448 20.337 16.2592 20.7952 15.3 20.9041C15.1137 21.2367 14.8421 21.5135 14.5131 21.7061C14.1842 21.8987 13.8098 22.0001 13.4286 21.9998H11.2857C10.7174 21.9998 10.1723 21.774 9.77049 21.3722C9.36862 20.9703 9.14286 20.4252 9.14286 19.8569C9.14286 19.2886 9.36862 18.7436 9.77049 18.3417C10.1723 17.9398 10.7174 17.7141 11.2857 17.7141H13.4286C14.2029 17.7141 14.8814 18.1241 15.2571 18.7398C15.6509 18.6493 16.0023 18.4279 16.254 18.1119C16.5057 17.7958 16.6428 17.4038 16.6429 16.9998V8.60978C16.6331 8.0095 16.5044 7.41711 16.2642 6.86686C16.0241 6.31661 15.6773 5.81942 15.2438 5.40402C14.8104 4.98863 14.2989 4.66327 13.7389 4.44677C13.1789 4.23026 12.5816 4.12689 11.9814 4.14264Z" fill="white"/>
    </symbol>
    <symbol id="x-twitter" width="24" height="24" viewBox="0 0 24 24" fill="none" xmlns="http://www.w3.org/2000/svg">
        <path fill-rule="evenodd" clip-rule="evenodd" d="M20.786 2.25731C21.1961 2.62713 21.2289 3.25945 20.859 3.66963L14.6608 10.5443L21.6572 19.4126C21.8433 19.649 21.9601 19.9342 21.9914 20.2349C22.0228 20.5357 21.9678 20.8386 21.8336 21.1087C21.6995 21.3787 21.4923 21.6042 21.2372 21.761C20.9824 21.9177 20.6894 22 20.3913 22C20.3913 22 20.3914 22 20.3913 22H16.8615L16.8601 22C16.6176 21.9996 16.3779 21.9448 16.1591 21.839C15.9405 21.7332 15.7479 21.5791 15.5967 21.3874C15.5965 21.3872 15.5969 21.3876 15.5967 21.3874L10.5977 15.0509L4.63022 21.6696C4.2604 22.0798 3.62808 22.1125 3.21789 21.7427C2.80771 21.3729 2.77499 20.7406 3.14481 20.3304L9.341 13.458L2.34282 4.58739C2.15667 4.35105 2.03995 4.06584 2.00859 3.76511C1.97722 3.46434 2.03222 3.16146 2.1664 2.89132C2.30051 2.6213 2.50775 2.39584 2.76275 2.23905C3.01759 2.08236 3.31063 1.99999 3.60869 2.00001C3.60863 2.00001 3.60875 2.00001 3.60869 2.00001H7.13993C7.38238 2.00037 7.62207 2.05524 7.84089 2.16105C8.05952 2.26678 8.25212 2.42087 8.40332 2.61263L13.4041 8.95141L19.3736 2.33039C19.7435 1.9202 20.3758 1.88748 20.786 2.25731ZM12.0455 10.4583L6.95038 4.00001H4.42689L10.6996 11.951L12.0455 10.4583ZM11.9563 13.544L17.0496 20H19.5731L13.3022 12.0512L11.9563 13.544Z" fill="white"/>
    </symbol>
    <symbol id="instagram" width="24" height="24" viewBox="0 0 24 24" fill="none" xmlns="http://www.w3.org/2000/svg">
        <path fill-rule="evenodd" clip-rule="evenodd" d="M7.45455 3.81818C5.44624 3.81818 3.81818 5.44624 3.81818 7.45455V16.5455C3.81818 18.5538 5.44624 20.1818 7.45455 20.1818H16.5455C18.5538 20.1818 20.1818 18.5538 20.1818 16.5455V7.45455C20.1818 5.44624 18.5538 3.81818 16.5455 3.81818H7.45455ZM2 7.45455C2 4.44208 4.44208 2 7.45455 2H16.5455C19.5579 2 22 4.44208 22 7.45455V16.5455C22 19.5579 19.5579 22 16.5455 22H7.45455C4.44208 22 2 19.5579 2 16.5455V7.45455ZM16.0909 7C16.0909 6.49792 16.4979 6.09091 17 6.09091H17.0091C17.5112 6.09091 17.9182 6.49792 17.9182 7C17.9182 7.50208 17.5112 7.90909 17.0091 7.90909H17C16.4979 7.90909 16.0909 7.50208 16.0909 7ZM12.4394 9.26289C11.8719 9.17875 11.2924 9.27567 10.7832 9.53988C10.2741 9.80408 9.86114 10.2221 9.60324 10.7345C9.34533 11.2469 9.25556 11.8276 9.3467 12.3939C9.43783 12.9603 9.70523 13.4835 10.1109 13.8891C10.5165 14.2948 11.0397 14.5622 11.6061 14.6533C12.1724 14.7444 12.7531 14.6547 13.2655 14.3968C13.7779 14.1389 14.1959 13.7259 14.4601 13.2168C14.7243 12.7076 14.8213 12.1281 14.7371 11.5606C14.6513 10.9818 14.3816 10.446 13.9678 10.0322C13.554 9.61844 13.0182 9.34872 12.4394 9.26289ZM9.94583 7.92602C10.7945 7.48568 11.7603 7.32414 12.7061 7.46438C13.6708 7.60743 14.5639 8.05695 15.2535 8.74655C15.9431 9.43614 16.3926 10.3292 16.5356 11.2939C16.6759 12.2397 16.5143 13.2055 16.074 14.0542C15.6336 14.9028 14.9369 15.591 14.0829 16.0208C13.2289 16.4507 12.2611 16.6003 11.3172 16.4484C10.3733 16.2965 9.50126 15.8508 8.82521 15.1748C8.14916 14.4987 7.7035 13.6267 7.55161 12.6828C7.39972 11.7389 7.54933 10.7711 7.97917 9.91708C8.40902 9.06308 9.0972 8.36636 9.94583 7.92602Z" fill="white"/>
    </symbol>
    <symbol id="facebook" width="24" height="24" viewBox="0 0 24 24" fill="none" xmlns="http://www.w3.org/2000/svg">
        <path fill-rule="evenodd" clip-rule="evenodd" d="M10.7574 2.75736C11.8826 1.63214 13.4087 1 15 1H18C18.5523 1 19 1.44772 19 2V6C19 6.55228 18.5523 7 18 7H15V9H18C18.3079 9 18.5987 9.14187 18.7882 9.38459C18.9777 9.6273 19.0448 9.94379 18.9701 10.2425L17.9701 14.2425C17.8588 14.6877 17.4589 15 17 15H15V22C15 22.5523 14.5523 23 14 23H10C9.44771 23 9 22.5523 9 22V15H7C6.44771 15 6 14.5523 6 14V10C6 9.44772 6.44771 9 7 9H9V7C9 5.4087 9.63214 3.88258 10.7574 2.75736ZM15 3C13.9391 3 12.9217 3.42143 12.1716 4.17157C11.4214 4.92172 11 5.93913 11 7V10C11 10.5523 10.5523 11 10 11H8V13H10C10.5523 13 11 13.4477 11 14V21H13V14C13 13.4477 13.4477 13 14 13H16.2192L16.7192 11H14C13.4477 11 13 10.5523 13 10V7C13 6.46957 13.2107 5.96086 13.5858 5.58579C13.9609 5.21071 14.4696 5 15 5H17V3H15Z" fill="white"/>
    </symbol>
    <symbol id="telegram" width="24" height="24" viewBox="0 0 24 24" fill="none" xmlns="http://www.w3.org/2000/svg">
        <path d="M3.30603 10.8879C8.40725 8.6301 11.808 7.1415 13.5084 6.42233C18.3691 4.36873 19.3778 4.01206 20.0366 4.00012C20.1815 3.99762 20.5041 4.03401 20.7146 4.20706C20.8896 4.35289 20.9388 4.55012 20.9634 4.68845C20.9853 4.82678 21.0154 5.14206 20.9908 5.38817C20.7284 8.19927 19.5884 15.0209 19.0088 18.1695C18.7655 19.5018 18.2816 19.9485 17.8141 19.9921C16.7972 20.0871 16.0262 19.3099 15.042 18.6545C13.5029 17.6287 12.6336 16.9904 11.1383 15.9895C9.41052 14.8329 10.5313 14.197 11.5155 13.1581C11.7725 12.8862 16.2504 8.74871 16.3351 8.37344C16.346 8.32649 16.357 8.15149 16.2531 8.05927C16.152 7.96677 16.0016 7.99844 15.8922 8.02344C15.7364 8.05899 13.2787 9.71121 8.51101 12.9798C7.8139 13.467 7.18241 13.7045 6.61379 13.692C5.99049 13.6784 4.78771 13.3331 3.89376 13.0381C2.80025 12.6762 1.92814 12.4848 2.00468 11.8701C2.04295 11.5501 2.47769 11.2226 3.30603 10.8879Z" fill="white"/>
    </symbol>
    <symbol id="disconnect" width="24" height="24" viewBox="0 0 24 24" fill="none" xmlns="http://www.w3.org/2000/svg">
        <path d="M12 3C11.2871 3 10.7091 3.57796 10.7091 4.2909V12.1186C10.7091 12.8316 11.2871 13.4095 12 13.4095C12.7129 13.4095 13.2909 12.8316 13.2909 12.1186V4.2909C13.2909 3.57796 12.7129 3 12 3ZM6.54199 6.54199C6.04142 6.04142 5.22121 6.03682 4.79636 6.60308C3.66819 8.10678 3 9.97546 3 12C3 16.9706 7.02944 21 12 21C16.9706 21 21 16.9706 21 12C21 9.97546 20.3318 8.10678 19.2036 6.60308C18.7788 6.03682 17.9586 6.04142 17.458 6.54199C16.9574 7.04257 16.9704 7.84896 17.3626 8.43831C18.0414 9.45833 18.4369 10.6831 18.4369 12C18.4369 15.5547 15.5547 18.4369 12 18.4369C8.44529 18.4369 5.56311 15.5547 5.56311 12C5.56311 10.6831 5.95861 9.45833 6.63738 8.43832C7.02957 7.84896 7.04257 7.04257 6.54199 6.54199Z" fill="white"/>
    </symbol>

    <!--  languages  -->
    <symbol id="flag-germany" width="24" height="24" viewBox="0 0 24 24" fill="none" xmlns="http://www.w3.org/2000/svg">
        <g clip-path="url(#clip0_474_10149)">
            <g clip-path="url(#clip1_474_10149)">
                <path d="M-4.7998 20.3077C-4.7998 22.3467 -3.14657 24 -1.1075 24H24.7387C26.7777 24 28.431 22.3467 28.431 20.3077V16.6154H-4.7998V20.3077Z" fill="#FFCD05"/>
                <path d="M-4.7998 8.30774H28.431V16.6154H-4.7998V8.30774Z" fill="#ED1F24"/>
                <path d="M24.7387 0H-1.1075C-3.14657 0 -4.7998 1.65323 -4.7998 3.69231V8.30769H28.431V3.69231C28.431 1.65323 26.7777 0 24.7387 0Z" fill="#141414"/>
            </g>
        </g>
        <defs>
            <clipPath id="clip0_474_10149">
                <rect width="24" height="24" rx="12" fill="white"/>
            </clipPath>
            <clipPath id="clip1_474_10149">
                <rect width="33.2308" height="24" fill="white" transform="translate(-4.7998)"/>
            </clipPath>
        </defs>
    </symbol>
    <symbol id="flag-uk" width="24" height="24" viewBox="0 0 24 24" fill="none" xmlns="http://www.w3.org/2000/svg">
        <g clip-path="url(#clip0_474_10095)">
            <g clip-path="url(#clip1_474_10095)">
                <path d="M-4.7998 3.74677V7.38462H0.395272L-4.7998 3.74677ZM-0.494574 24H7.2002V18.612L-0.494574 24ZM16.431 18.6129V24H24.1248L16.431 18.6129ZM-4.7998 16.6154V20.2532L0.397119 16.6154H-4.7998ZM24.1267 0H16.431V5.388L24.1267 0ZM28.431 20.2542V16.6154H23.2331L28.431 20.2542ZM28.431 7.38462V3.74677L23.235 7.38462H28.431ZM7.2002 0H-0.494574L7.2002 5.388V0Z" fill="#00247D"/>
                <path d="M18.406 16.6153L27.3709 22.8932C27.8056 22.451 28.1167 21.8944 28.2847 21.2787L21.6247 16.6153H18.406ZM7.1998 16.6153H5.2235L-3.7405 22.8922C-3.25958 23.3815 -2.64297 23.7313 -1.95158 23.8938L7.1998 17.4858V16.6153ZM16.4306 7.38454H18.4069L27.3709 1.10762C26.89 0.618387 26.2743 0.268541 25.5829 0.106079L16.4306 6.51408V7.38454ZM5.2235 7.38454L-3.7405 1.10762C-4.17527 1.55069 -4.48635 2.10639 -4.65527 2.72208L2.00473 7.38454H5.2235Z" fill="#CF1B2B"/>
                <path d="M28.431 14.7692H14.5848V24H16.431V18.6129L24.1248 24H24.7387C25.7697 24 26.7011 23.5745 27.3713 22.8932L18.4063 16.6154H21.6251L28.2851 21.2788C28.371 20.9677 28.431 20.6455 28.431 20.3077V20.2542L23.2331 16.6154H28.431V14.7692ZM-4.7998 14.7692V16.6154H0.397119L-4.7998 20.2532V20.3077C-4.7998 21.3148 -4.39457 22.2258 -3.74011 22.8923L5.22389 16.6154H7.2002V17.4858L-1.95119 23.8929C-1.6798 23.9575 -1.39919 24 -1.1075 24H-0.494574L7.2002 18.612V24H9.04635V14.7692H-4.7998ZM28.431 3.69231C28.431 2.68523 28.0257 1.77415 27.3713 1.10769L18.4073 7.38462H16.431V6.51415L25.5833 0.106154C25.311 0.0424613 25.0303 0 24.7387 0H24.1267L16.431 5.388V0H14.5848V9.23077H28.431V7.38462H23.235L28.431 3.74677V3.69231ZM7.2002 0V5.388L-0.494574 0H-1.1075C-2.1395 0 -3.06996 0.425538 -3.74011 1.10769L5.22389 7.38462H2.00512L-4.65488 2.72215C-4.7398 3.03323 -4.7998 3.35446 -4.7998 3.69231V3.74677L0.395272 7.38462H-4.7998V9.23077H9.04635V0H7.2002Z" fill="#EEEEEE"/>
                <path d="M14.5848 9.23077V0H9.04635V9.23077H-4.7998V14.7692H9.04635V24H14.5848V14.7692H28.431V9.23077H14.5848Z" fill="#CF1B2B"/>
            </g>
        </g>
        <defs>
            <clipPath id="clip0_474_10095">
                <rect width="24" height="24" rx="12" fill="white"/>
            </clipPath>
            <clipPath id="clip1_474_10095">
                <rect width="33.2308" height="24" fill="white" transform="translate(-4.7998)"/>
            </clipPath>
        </defs>
    </symbol>
    <symbol id="flag-france" width="24" height="24" viewBox="0 0 24 24" fill="none" xmlns="http://www.w3.org/2000/svg">
        <g clip-path="url(#clip0_474_10144)">
            <g clip-path="url(#clip1_474_10144)">
                <path d="M28.4304 20.3077C28.4304 22.3468 26.7772 24 24.7381 24H17.3535V0H24.7381C26.7772 0 28.4304 1.65323 28.4304 3.69231V20.3077Z" fill="#ED2939"/>
                <path d="M-1.1075 0C-3.14657 0 -4.7998 1.65323 -4.7998 3.69231V20.3077C-4.7998 22.3468 -3.14657 24 -1.1075 24H6.27712V0H-1.1075Z" fill="#002495"/>
                <path d="M6.27734 0H17.3543V24H6.27734V0Z" fill="#EEEEEE"/>
            </g>
        </g>
        <defs>
            <clipPath id="clip0_474_10144">
                <rect width="24" height="24" rx="12" fill="white"/>
            </clipPath>
            <clipPath id="clip1_474_10144">
                <rect width="33.2308" height="24" fill="white" transform="translate(-4.7998)"/>
            </clipPath>
        </defs>
    </symbol>
    <symbol id="flag-russia" width="24" height="24" viewBox="0 0 24 24" fill="none" xmlns="http://www.w3.org/2000/svg">
        <g clip-path="url(#clip0_474_10154)">
            <g clip-path="url(#clip1_474_10154)">
                <path d="M28.431 20.3077C28.431 22.3467 26.7777 24 24.7387 24H-1.1075C-3.14657 24 -4.7998 22.3467 -4.7998 20.3077V16.6154H28.431V20.3077Z" fill="#CE2028"/>
                <path d="M-4.7998 7.38464H28.431V16.6154H-4.7998V7.38464Z" fill="#22408C"/>
                <path d="M24.7387 0H-1.1075C-3.14657 0 -4.7998 1.65323 -4.7998 3.69231V7.38462H28.431V3.69231C28.431 1.65323 26.7777 0 24.7387 0Z" fill="#EEEEEE"/>
            </g>
        </g>
        <defs>
            <clipPath id="clip0_474_10154">
                <rect width="24" height="24" rx="12" fill="white"/>
            </clipPath>
            <clipPath id="clip1_474_10154">
                <rect width="33.2308" height="24" fill="white" transform="translate(-4.7998)"/>
            </clipPath>
        </defs>
    </symbol>
    <symbol id="flag-usa" width="24" height="24" viewBox="0 0 24 24" fill="none" xmlns="http://www.w3.org/2000/svg">
        <g clip-path="url(#clip0_397_11659)">
            <g clip-path="url(#clip1_397_11659)">
                <path d="M46.5308 3.07692C45.4646 1.24462 43.5031 0 41.2308 0H19.6923V3.07692H46.5308ZM-8 30.7692H47.3846V33.8462H-8V30.7692ZM19.6923 18.4615H47.3846V21.5385H19.6923V18.4615ZM19.6923 12.3077H47.3846V15.3846H19.6923V12.3077ZM-8 24.6154H47.3846V27.6923H-8V24.6154ZM-1.84615 40H41.2308C43.5031 40 45.4646 38.7554 46.5308 36.9231H-7.14615C-6.08 38.7554 -4.11846 40 -1.84615 40ZM19.6923 6.15385H47.3846V9.23077H19.6923V6.15385Z" fill="#B22334"/>
                <path d="M-7.89538 34.8908C-7.86923 35.0338 -7.84 35.1769 -7.80462 35.3169C-7.76462 35.4723 -7.71538 35.6215 -7.66308 35.7723C-7.52615 36.1708 -7.36 36.5554 -7.15077 36.9154L-7.14615 36.9231H46.5308L46.5338 36.9169C46.7415 36.5584 46.9077 36.1738 47.0446 35.7769C47.0969 35.6246 47.1477 35.4723 47.1877 35.3138C47.2231 35.1754 47.2523 35.0338 47.2785 34.8908C47.3415 34.5523 47.3846 34.2046 47.3846 33.8461H-8C-8 34.2046 -7.95692 34.5508 -7.89538 34.8908ZM-8 27.6923H47.3846V30.7692H-8V27.6923ZM-8 21.5384V24.6154H47.3846V21.5384H19.6923H-8ZM19.6923 15.3846H47.3846V18.4615H19.6923V15.3846ZM19.6923 9.23075H47.3846V12.3077H19.6923V9.23075ZM-8 6.15383C-8 5.79537 -7.95385 5.45075 -7.89538 5.10921C-7.95692 5.44921 -8 5.79537 -8 6.15383ZM-7.80308 4.68306C-7.76462 4.52613 -7.71077 4.3769 -7.66154 4.22614C-7.71385 4.3769 -7.76308 4.52767 -7.80308 4.68306ZM19.6923 6.15383H47.3846C47.3846 5.79537 47.3415 5.44767 47.2785 5.10767C47.2523 4.96613 47.2246 4.8246 47.1877 4.68613C47.1462 4.52767 47.0969 4.37383 47.0431 4.22152C46.9062 3.8246 46.74 3.44152 46.5323 3.08306C46.5338 3.08152 46.5323 3.07844 46.5308 3.0769H19.6923V6.15383Z" fill="#EEEEEE"/>
                <path d="M19.6923 0H-1.84615C-5.24462 0 -8 2.75538 -8 6.15385V21.5385H19.6923V0Z" fill="#3C3B6E"/>
                <path d="M-4.92151 4.19383L-3.97074 4.8846L-4.33382 5.99998L-3.38459 5.31075L-2.43382 5.99998L-2.79689 4.8846L-1.84612 4.19383H-3.02151L-3.38459 3.0769L-3.74612 4.19383H-4.92151ZM-1.84459 7.27075L-0.893816 7.96152L-1.25689 9.0769L-0.307662 8.38767L0.643107 9.0769L0.28003 7.96152L1.2308 7.27075H0.0554147L-0.307662 6.15383L-0.669201 7.27075H-1.84459ZM4.30926 7.27075L5.26003 7.96152L4.89695 9.0769L5.84618 8.38767L6.79695 9.0769L6.43388 7.96152L7.38465 7.27075H6.20926L5.84618 6.15383L5.48465 7.27075H4.30926ZM10.4631 7.27075L11.4139 7.96152L11.0508 9.0769L12 8.38767L12.9508 9.0769L12.5877 7.96152L13.5385 7.27075H12.3631L12 6.15383L11.6385 7.27075H10.4631ZM-1.84459 13.4246L-0.893816 14.1154L-1.25689 15.2307L-0.307662 14.5415L0.643107 15.2307L0.28003 14.1154L1.2308 13.4246H0.0554147L-0.307662 12.3077L-0.669201 13.4246H-1.84459ZM4.30926 13.4246L5.26003 14.1154L4.89695 15.2307L5.84618 14.5415L6.79695 15.2307L6.43388 14.1154L7.38465 13.4246H6.20926L5.84618 12.3077L5.48465 13.4246H4.30926ZM10.4631 13.4246L11.4139 14.1154L11.0508 15.2307L12 14.5415L12.9508 15.2307L12.5877 14.1154L13.5385 13.4246H12.3631L12 12.3077L11.6385 13.4246H10.4631ZM1.23234 4.19383L2.18311 4.8846L1.82003 5.99998L2.76926 5.31075L3.72003 5.99998L3.35695 4.8846L4.30772 4.19383H3.13234L2.76926 3.0769L2.40772 4.19383H1.23234ZM7.38618 4.19383L8.33695 4.8846L7.97388 5.99998L8.92311 5.31075L9.87388 5.99998L9.5108 4.8846L10.4616 4.19383H9.28618L8.92311 3.0769L8.56157 4.19383H7.38618ZM13.54 4.19383L14.4908 4.8846L14.1277 5.99998L15.077 5.31075L16.0277 5.99998L15.6646 4.8846L16.6154 4.19383H15.44L15.077 3.0769L14.7154 4.19383H13.54ZM-4.92151 10.3477L-3.97074 11.0384L-4.33382 12.1538L-3.38459 11.4646L-2.43382 12.1538L-2.79689 11.0384L-1.84612 10.3477H-3.02151L-3.38459 9.23075L-3.74612 10.3477H-4.92151ZM1.82003 12.1538L2.76926 11.4646L3.72003 12.1538L3.35695 11.0384L4.30772 10.3477H3.13234L2.76926 9.23075L2.40772 10.3477H1.23234L2.18311 11.0384L1.82003 12.1538ZM7.38618 10.3477L8.33695 11.0384L7.97388 12.1538L8.92311 11.4646L9.87388 12.1538L9.5108 11.0384L10.4616 10.3477H9.28618L8.92311 9.23075L8.56157 10.3477H7.38618ZM13.54 10.3477L14.4908 11.0384L14.1277 12.1538L15.077 11.4646L16.0277 12.1538L15.6646 11.0384L16.6154 10.3477H15.44L15.077 9.23075L14.7154 10.3477H13.54ZM-4.92151 16.5015L-3.97074 17.1923L-4.33382 18.3077L-3.38459 17.6184L-2.43382 18.3077L-2.79689 17.1923L-1.84612 16.5015H-3.02151L-3.38459 15.3846L-3.74612 16.5015H-4.92151ZM1.82003 18.3077L2.76926 17.6184L3.72003 18.3077L3.35695 17.1923L4.30772 16.5015H3.13234L2.76926 15.3846L2.40772 16.5015H1.23234L2.18311 17.1923L1.82003 18.3077ZM7.38618 16.5015L8.33695 17.1923L7.97388 18.3077L8.92311 17.6184L9.87388 18.3077L9.5108 17.1923L10.4616 16.5015H9.28618L8.92311 15.3846L8.56157 16.5015H7.38618ZM13.54 16.5015L14.4908 17.1923L14.1277 18.3077L15.077 17.6184L16.0277 18.3077L15.6646 17.1923L16.6154 16.5015H15.44L15.077 15.3846L14.7154 16.5015H13.54Z" fill="white"/>
            </g>
        </g>
        <defs>
            <clipPath id="clip0_397_11659">
                <rect width="40" height="40" rx="20" fill="white"/>
            </clipPath>
            <clipPath id="clip1_397_11659">
                <rect width="55.3846" height="40" fill="white" transform="translate(-8)"/>
            </clipPath>
        </defs>
    </symbol>
    <symbol id="timer" width="24" height="24" viewBox="0 0 24 24" fill="none" xmlns="http://www.w3.org/2000/svg">
        <path d="M12.0024 17.9978C12.5549 17.9978 13.0027 17.5502 13.0027 16.998C13.0027 16.4458 12.5549 15.9981 12.0024 15.9981C11.45 15.9981 11.0022 16.4458 11.0022 16.998C11.0022 17.5502 11.45 17.9978 12.0024 17.9978Z" fill="white"/>
        <path d="M7.00109 12.9986C7.55352 12.9986 8.00136 12.5509 8.00136 11.9987C8.00136 11.4465 7.55352 10.9989 7.00109 10.9989C6.44865 10.9989 6.00081 11.4465 6.00081 11.9987C6.00081 12.5509 6.44865 12.9986 7.00109 12.9986Z" fill="white"/>
        <path d="M17.0038 12.9986C17.5562 12.9986 18.0041 12.5509 18.0041 11.9987C18.0041 11.4465 17.5562 10.9989 17.0038 10.9989C16.4514 10.9989 16.0035 11.4465 16.0035 11.9987C16.0035 12.5509 16.4514 12.9986 17.0038 12.9986Z" fill="white"/>
        <path d="M12.0024 3C11.4523 3 11.0022 3.44994 11.0022 3.99986V5.99957C11.0022 6.54949 11.4523 6.99943 12.0024 6.99943C12.5526 6.99943 13.0027 6.54949 13.0027 5.99957V5.0797C16.3136 5.55963 18.8743 8.32924 19.0043 11.7387C19.1444 15.5882 15.9735 18.9377 12.1225 18.9977C8.19141 19.0577 5.00054 15.9081 5.00054 11.9987C5.00054 10.319 5.5907 8.77917 6.58097 7.57934L11.2923 12.2987C11.6824 12.6886 12.3125 12.6886 12.7026 12.2987C13.0927 11.9087 13.0927 11.2788 12.7026 10.8889L7.26116 5.45965C6.88105 5.0797 6.26089 5.0697 5.86078 5.43965C4.1003 7.06942 3 9.39908 3 11.9987C3 17.038 7.14112 21.1174 12.2125 20.9974C16.9138 20.8874 20.8448 16.988 20.9949 12.2887C21.1649 7.1894 17.0738 3 12.0024 3Z" fill="white"/>
    </symbol>
    <symbol id="tether" width="24" height="24" viewBox="0 0 24 24" fill="none" xmlns="http://www.w3.org/2000/svg">
        <circle cx="12.25" cy="12" r="11" fill="#009393"/>
        <path fill-rule="evenodd" clip-rule="evenodd" d="M12.265 12.8576C14.3287 12.8576 16.0534 12.5087 16.4749 12.0425C16.117 11.6471 14.8225 11.3357 13.1785 11.2505V12.2354C12.8842 12.2507 12.5782 12.2582 12.2647 12.2582C11.9512 12.2582 11.6452 12.2507 11.3503 12.2354V11.2505C9.70694 11.3357 8.41184 11.6471 8.05394 12.0425C8.47604 12.5087 10.201 12.8576 12.2647 12.8576H12.265ZM15.9316 8.22173V9.57803H13.1785V10.5185C15.1123 10.619 16.5634 11.0324 16.5742 11.5271V12.5585C16.5634 13.0532 15.1123 13.4657 13.1785 13.5665V15.8747H11.3506V13.5665C9.41684 13.466 7.96634 13.0532 7.95554 12.5585V11.5271C7.96634 11.0324 9.41684 10.619 11.3506 10.5185V9.57803H8.59754V8.22173H15.9319H15.9316ZM7.51484 6.06323H17.1796C17.4106 6.06323 17.6233 6.18473 17.7385 6.38213L20.554 11.2169C20.6998 11.4677 20.6566 11.7842 20.4484 11.9873L12.6982 19.5527C12.4468 19.7978 12.043 19.7978 11.7922 19.5527L4.05164 11.9975C3.83894 11.7893 3.79874 11.4638 3.95564 11.2118L6.96554 6.36713C7.08284 6.17873 7.29104 6.06353 7.51514 6.06353L7.51484 6.06323Z" fill="white"/>
    </symbol>
    <symbol id="notcoin" width="24" height="24" viewBox="0 0 24 24" fill="none" xmlns="http://www.w3.org/2000/svg">
        <circle cx="12.25" cy="12" r="11" fill="black"/>
        <path d="M8.15476 17.5349H16.3497C17.8565 17.5349 18.8115 15.9095 18.0535 14.5956L12.9958 5.82926C12.6658 5.25687 11.8387 5.25687 11.5087 5.82926L6.44996 14.5956C5.69296 15.9075 6.64798 17.5349 8.15373 17.5349H8.15476ZM13 8.45813L14.1014 10.5899L16.7592 15.3433C16.9345 15.6476 16.7179 16.0374 16.3508 16.0374H13.001V8.4571L13 8.45813ZM7.74738 15.3444L10.4041 10.5889L11.5056 8.45813V16.0384H8.15579C7.78863 16.0384 7.57205 15.6486 7.74738 15.3444Z" fill="white"/>
    </symbol>
</svg>