<svg width="103.000000" height="50.000000" viewBox="0 0 103 50" fill="none" xmlns="http://www.w3.org/2000/svg" xmlns:xlink="http://www.w3.org/1999/xlink">
    <defs>
		<filter id="filter_43_146375_dd" x="0.000000" y="0.000000" width="103.000000" height="50.000000" filterUnits="userSpaceOnUse" color-interpolation-filters="sRGB">
			<feFlood flood-opacity="0" result="BackgroundImageFix"/>
			<feGaussianBlur in="BackgroundImage" stdDeviation="3"/>
			<feComposite in2="SourceAlpha" operator="in" result="effect_backgroundBlur_1"/>
			<feColorMatrix in="SourceAlpha" type="matrix" values="0 0 0 0 0 0 0 0 0 0 0 0 0 0 0 0 0 0 127 0" result="hardAlpha"/>
			<feOffset dx="0" dy="0"/>
			<feGaussianBlur stdDeviation="3.33333"/>
			<feComposite in2="hardAlpha" operator="out" k2="-1" k3="1"/>
			<feColorMatrix type="matrix" values="0 0 0 0 0 0 0 0 0 0 0 0 0 0 0 0 0 0 0.2 0"/>
			<feBlend mode="normal" in2="effect_backgroundBlur_1" result="effect_dropShadow_2"/>
			<feBlend mode="normal" in="SourceGraphic" in2="effect_dropShadow_2" result="shape"/>
		</filter>
		<radialGradient id="paint_radial_43_146375_0" cx="0.000000" cy="0.000000" r="1.000000" gradientUnits="userSpaceOnUse" gradientTransform="translate(51.5 10) rotate(90) scale(38.9268 83)">
			<stop offset="0.291563" stop-color="#4B4B4B"/>
			<stop offset="0.918784" stop-color="#060606"/>
		</radialGradient>
		<linearGradient id="paint_linear_43_146375_1" x1="10.000031" y1="48.926842" x2="19.861412" y2="31.085373" gradientUnits="userSpaceOnUse">
			<stop stop-color="#FFFFFF"/>
			<stop offset="1.000000" stop-color="#FFFFFF" stop-opacity="0.000000"/>
		</linearGradient>
		<linearGradient id="paint_linear_43_146375_2" x1="92.999939" y1="9.999987" x2="88.274704" y2="27.192673" gradientUnits="userSpaceOnUse">
			<stop stop-color="#FFFFFF"/>
			<stop offset="1.000000" stop-color="#FFFFFF" stop-opacity="0.000000"/>
		</linearGradient>
	</defs>
	<g filter="url(#filter_43_146375_dd)">
		<path id="Rectangle 42355" d="M17.07 18C17.91 18 18.33 18 18.73 17.93C19.49 17.8 20.21 17.51 20.84 17.06C21.17 16.82 21.47 16.52 22.07 15.92L25.1 12.89C26.51 11.48 27.22 10.77 28.12 10.39C28.14 10.38 28.16 10.37 28.19 10.36C29.09 10 30.09 10 32.1 10L70.89 10C72.9 10 73.9 10 74.8 10.36C74.83 10.37 74.85 10.38 74.87 10.39C75.77 10.77 76.48 11.48 77.89 12.89L80.92 15.92C81.52 16.52 81.82 16.82 82.15 17.06C82.78 17.51 83.5 17.8 84.26 17.93C84.66 18 85.08 18 85.92 18C87.85 18 88.82 18 89.59 18.26C91.07 18.76 92.23 19.92 92.73 21.4C93 22.17 93 23.14 93 25.07L93 30.1C93 34.71 93 37.02 91.59 38.47C91.55 38.51 91.51 38.55 91.47 38.59C90.02 40 87.71 40 83.1 40L19.89 40C15.28 40 12.97 40 11.52 38.59C11.48 38.55 11.44 38.51 11.4 38.47C10 37.02 10 34.71 10 30.1L10 25.07C10 23.14 10 22.17 10.26 21.4C10.76 19.92 11.92 18.76 13.4 18.26C14.17 18 15.14 18 17.07 18Z" fill="url(#paint_radial_43_146375_0)" fill-opacity="0.700000" fill-rule="nonzero"/>
		<path id="Rectangle 42355" d="M17.07 18C17.91 18 18.33 18 18.73 17.93C19.49 17.8 20.21 17.51 20.84 17.06C21.17 16.82 21.47 16.52 22.07 15.92L25.1 12.89C26.51 11.48 27.22 10.77 28.12 10.39C28.14 10.38 28.16 10.37 28.19 10.36C29.09 10 30.09 10 32.1 10L70.89 10C72.9 10 73.9 10 74.8 10.36C74.83 10.37 74.85 10.38 74.87 10.39C75.77 10.77 76.48 11.48 77.89 12.89L80.92 15.92C81.52 16.52 81.82 16.82 82.15 17.06C82.78 17.51 83.5 17.8 84.26 17.93C84.66 18 85.08 18 85.92 18C87.85 18 88.82 18 89.59 18.26C91.07 18.76 92.23 19.92 92.73 21.4C93 22.17 93 23.14 93 25.07L93 30.1C93 34.71 93 37.02 91.59 38.47C91.55 38.51 91.51 38.55 91.47 38.59C90.02 40 87.71 40 83.1 40L19.89 40C15.28 40 12.97 40 11.52 38.59C11.48 38.55 11.44 38.51 11.4 38.47C10 37.02 10 34.71 10 30.1L10 25.07C10 23.14 10 22.17 10.26 21.4C10.76 19.92 11.92 18.76 13.4 18.26C14.17 18 15.14 18 17.07 18ZM92.5 25.07L92.5 30.1Q92.5 36.82 91.23 38.13Q91.18 38.18 91.13 38.23Q89.82 39.5 83.1 39.5L19.89 39.5Q13.17 39.5 11.86 38.23Q11.81 38.18 11.76 38.13Q10.5 36.82 10.5 30.1L10.5 25.07Q10.5 22.26 10.73 21.56Q11.09 20.5 11.79 19.79Q12.5 19.09 13.56 18.73Q14.26 18.5 17.07 18.5Q18.37 18.5 18.81 18.42Q19.45 18.32 20.03 18.08Q20.61 17.84 21.13 17.46Q21.5 17.2 22.42 16.28L25.45 13.25Q27.5 11.19 28.31 10.85L28.35 10.83L28.38 10.82Q29.19 10.5 32.1 10.5L70.89 10.5Q73.8 10.5 74.61 10.82L74.66 10.84L74.68 10.85Q75.49 11.19 77.54 13.25L80.57 16.28Q81.49 17.2 81.86 17.46Q82.38 17.84 82.96 18.08Q83.54 18.32 84.18 18.42Q84.62 18.5 85.92 18.5Q88.73 18.5 89.43 18.73Q90.49 19.09 91.2 19.79Q91.9 20.5 92.26 21.56Q92.5 22.26 92.5 25.07Z" fill="url(#paint_linear_43_146375_1)" fill-opacity="0.300000" fill-rule="evenodd"/>
		<path id="Rectangle 42355" d="M17.07 18C17.91 18 18.33 18 18.73 17.93C19.49 17.8 20.21 17.51 20.84 17.06C21.17 16.82 21.47 16.52 22.07 15.92L25.1 12.89C26.51 11.48 27.22 10.77 28.12 10.39C28.14 10.38 28.16 10.37 28.19 10.36C29.09 10 30.09 10 32.1 10L70.89 10C72.9 10 73.9 10 74.8 10.36C74.83 10.37 74.85 10.38 74.87 10.39C75.77 10.77 76.48 11.48 77.89 12.89L80.92 15.92C81.52 16.52 81.82 16.82 82.15 17.06C82.78 17.51 83.5 17.8 84.26 17.93C84.66 18 85.08 18 85.92 18C87.85 18 88.82 18 89.59 18.26C91.07 18.76 92.23 19.92 92.73 21.4C93 22.17 93 23.14 93 25.07L93 30.1C93 34.71 93 37.02 91.59 38.47C91.55 38.51 91.51 38.55 91.47 38.59C90.02 40 87.71 40 83.1 40L19.89 40C15.28 40 12.97 40 11.52 38.59C11.48 38.55 11.44 38.51 11.4 38.47C10 37.02 10 34.71 10 30.1L10 25.07C10 23.14 10 22.17 10.26 21.4C10.76 19.92 11.92 18.76 13.4 18.26C14.17 18 15.14 18 17.07 18ZM92.5 25.07L92.5 30.1Q92.5 36.82 91.23 38.13Q91.18 38.18 91.13 38.23Q89.82 39.5 83.1 39.5L19.89 39.5Q13.17 39.5 11.86 38.23Q11.81 38.18 11.76 38.13Q10.5 36.82 10.5 30.1L10.5 25.07Q10.5 22.26 10.73 21.56Q11.09 20.5 11.79 19.79Q12.5 19.09 13.56 18.73Q14.26 18.5 17.07 18.5Q18.37 18.5 18.81 18.42Q19.45 18.32 20.03 18.08Q20.61 17.84 21.13 17.46Q21.5 17.2 22.42 16.28L25.45 13.25Q27.5 11.19 28.31 10.85L28.35 10.83L28.38 10.82Q29.19 10.5 32.1 10.5L70.89 10.5Q73.8 10.5 74.61 10.82L74.66 10.84L74.68 10.85Q75.49 11.19 77.54 13.25L80.57 16.28Q81.49 17.2 81.86 17.46Q82.38 17.84 82.96 18.08Q83.54 18.32 84.18 18.42Q84.62 18.5 85.92 18.5Q88.73 18.5 89.43 18.73Q90.49 19.09 91.2 19.79Q91.9 20.5 92.26 21.56Q92.5 22.26 92.5 25.07Z" fill="url(#paint_linear_43_146375_2)" fill-opacity="0.300000" fill-rule="evenodd"/>
	</g>
</svg>
