<svg xmlns="http://www.w3.org/2000/svg" style="display: none;">
    <symbol id="bitcoin" width="16" height="16" viewBox="0 0 16 16" fill="none" xmlns="http://www.w3.org/2000/svg">
        <rect width="16" height="16" rx="8" fill="#F7931A"/>
        <path d="M11.5267 6.86218C11.6859 5.79755 10.8754 5.22527 9.76706 4.84351L10.1266 3.40138L9.24875 3.18264L8.89873 4.5868C8.66795 4.52924 8.43094 4.475 8.19538 4.42123L8.54794 3.00781L7.67062 2.78906L7.31087 4.23072C7.11989 4.18724 6.93231 4.14426 6.75032 4.09898L6.75134 4.09445L5.54074 3.79214L5.30722 4.72976C5.30722 4.72976 5.95852 4.87905 5.9448 4.88824C6.30028 4.97697 6.36457 5.21229 6.35389 5.39881L5.94433 7.04174C5.96881 7.04796 6.00056 7.05695 6.03559 7.07103C6.00631 7.06375 5.97514 7.05582 5.9428 7.04807L5.36873 9.34957C5.32528 9.45758 5.21501 9.61966 4.96647 9.55811C4.97527 9.57086 4.32842 9.39888 4.32842 9.39888L3.89258 10.4038L5.03498 10.6885C5.24751 10.7418 5.45577 10.7976 5.66087 10.85L5.2976 12.3087L6.17445 12.5275L6.5342 11.0843C6.77375 11.1493 7.00621 11.2093 7.2338 11.2658L6.87526 12.7022L7.75317 12.921L8.1164 11.465C9.61335 11.7483 10.7389 11.6341 11.2127 10.2801C11.5945 9.18999 11.1937 8.56121 10.4062 8.15118C10.9798 8.01889 11.4118 7.64162 11.527 6.86229L11.5267 6.8621L11.5267 6.86218ZM9.52099 9.67472C9.24969 10.7648 7.41426 10.1756 6.81918 10.0278L7.30125 8.0953C7.89628 8.24385 9.80452 8.53783 9.52102 9.67472H9.52099ZM9.79248 6.84638C9.54499 7.83796 8.01735 7.33419 7.52179 7.21066L7.95885 5.45802C8.4544 5.58154 10.0503 5.8121 9.79256 6.84638H9.79248Z" fill="white"/>
    </symbol>
    <symbol id="arrows-cyrcle" width="12" height="12" viewBox="0 0 12 12" fill="none" xmlns="http://www.w3.org/2000/svg">
        <path fill-rule="evenodd" clip-rule="evenodd" d="M1.60265 4.2428C2.28475 2.49949 4.07615 1.2428 6.07664 1.2428C8.28922 1.2428 10.1413 2.78639 10.611 4.85358C10.6722 5.12286 10.94 5.29155 11.2093 5.23037C11.4786 5.16919 11.6473 4.9013 11.5861 4.63202C11.0151 2.11866 8.76545 0.242798 6.07664 0.242798C4.21766 0.242798 2.49657 1.14248 1.42712 2.54019V1.31423C1.42712 1.03808 1.20326 0.814226 0.927118 0.814226C0.650976 0.814226 0.427118 1.03808 0.427118 1.31423V4.7428C0.427118 5.01894 0.650976 5.2428 0.927118 5.2428H4.07404C4.35019 5.2428 4.57404 5.01894 4.57404 4.7428C4.57404 4.46666 4.35019 4.2428 4.07404 4.2428H1.60265ZM10.4101 7.755C9.72796 9.49832 7.93657 10.755 5.93608 10.755C3.7235 10.755 1.87142 9.21141 1.40175 7.14423C1.34056 6.87495 1.07267 6.70625 0.803392 6.76743C0.534113 6.82861 0.365416 7.0965 0.426598 7.36578C0.99765 9.87915 3.24727 11.755 5.93608 11.755C7.79505 11.755 9.51615 10.8553 10.5856 9.45762V10.6836C10.5856 10.9597 10.8095 11.1836 11.0856 11.1836C11.3617 11.1836 11.5856 10.9597 11.5856 10.6836V7.255C11.5856 6.97886 11.3617 6.755 11.0856 6.755H7.93867C7.66253 6.755 7.43867 6.97886 7.43867 7.255C7.43867 7.53115 7.66253 7.755 7.93867 7.755H10.4101Z" fill="white"/>
    </symbol>
    <svg id="ton" width="16" height="16" viewBox="0 0 16 16" fill="none" xmlns="http://www.w3.org/2000/svg">
        <rect x="1" y="1" width="14" height="14" rx="7" fill="#0098EA"/>
        <path d="M10.7012 4H5.29849C4.30512 4 3.6755 5.07154 4.17525 5.93775L7.50962 11.717C7.7272 12.0943 8.2725 12.0943 8.49007 11.717L11.8251 5.93775C12.3242 5.0729 11.6946 4 10.7019 4H10.7012ZM7.5069 9.98389L6.78074 8.57852L5.02856 5.44481C4.91297 5.24424 5.05576 4.98723 5.29781 4.98723H7.50622V9.98457L7.5069 9.98389ZM10.9698 5.44413L9.21828 8.5792L8.49211 9.98389V4.98655H10.7005C10.9426 4.98655 11.0854 5.24356 10.9698 5.44413Z" fill="white"/>
    </svg>
    <symbol id="burger" width="24" height="24" viewBox="0 0 24 24" fill="none" xmlns="http://www.w3.org/2000/svg">
        <path fill-rule="evenodd" clip-rule="evenodd" d="M3 7C3 6.44772 3.44772 6 4 6H20C20.5523 6 21 6.44772 21 7C21 7.55228 20.5523 8 20 8H4C3.44772 8 3 7.55228 3 7ZM3 17C3 16.4477 3.44772 16 4 16H20C20.5523 16 21 16.4477 21 17C21 17.5523 20.5523 18 20 18H4C3.44772 18 3 17.5523 3 17ZM4 11C3.44772 11 3 11.4477 3 12C3 12.5523 3.44772 13 4 13H20C20.5523 13 21 12.5523 21 12C21 11.4477 20.5523 11 20 11H4Z" fill="white"/>
    </symbol>
    <symbol id="plus" width="16" height="16" viewBox="0 0 16 16" fill="none" xmlns="http://www.w3.org/2000/svg">
        <path d="M8 2V14" stroke="white" stroke-linecap="round" stroke-linejoin="round"/>
        <path d="M2 8H14" stroke="white" stroke-linecap="round" stroke-linejoin="round"/>
    </symbol>
    <symbol id="flag" width="16" height="16" viewBox="0 0 16 16" fill="none" xmlns="http://www.w3.org/2000/svg">
        <path d="M9.26667 3.66671L9.10667 2.86671C9.04667 2.56004 8.77333 2.33337 8.45333 2.33337H3.66667C3.3 2.33337 3 2.63337 3 3.00004V13C3 13.3667 3.3 13.6667 3.66667 13.6667C4.03333 13.6667 4.33333 13.3667 4.33333 13V9.00004H8.06667L8.22667 9.80004C8.28667 10.1134 8.56 10.3334 8.88 10.3334H12.3333C12.7 10.3334 13 10.0334 13 9.66671V4.33337C13 3.96671 12.7 3.66671 12.3333 3.66671H9.26667Z" fill="white"/>
    </symbol>
    <symbol id="arrow-up" width="12" height="12" viewBox="0 0 12 12" fill="none" xmlns="http://www.w3.org/2000/svg">
        <path fill-rule="evenodd" clip-rule="evenodd" d="M5.70431 3.9548C5.86736 3.79176 6.1317 3.79176 6.29475 3.9548L9.54475 7.2048C9.70779 7.36785 9.70779 7.63219 9.54475 7.79524C9.3817 7.95828 9.11736 7.95828 8.95431 7.79524L5.99953 4.84045L3.04475 7.79524C2.8817 7.95828 2.61736 7.95828 2.45431 7.79524C2.29127 7.63219 2.29127 7.36785 2.45431 7.2048L5.70431 3.9548Z" fill="white"/>
    </symbol>
    <symbol id="arrow-down" viewBox="0 0 10 6" fill="none" xmlns="http://www.w3.org/2000/svg">
        <path fill-rule="evenodd" clip-rule="evenodd" d="M4.59752 5.82039C4.8198 6.05987 5.1802 6.05987 5.40248 5.82039L9.83329 1.04683C10.0556 0.807353 10.0556 0.419085 9.83329 0.179608C9.61101 -0.0598693 9.25062 -0.0598693 9.02833 0.179608L5 4.51956L0.971666 0.179608C0.749384 -0.0598693 0.388994 -0.0598693 0.166712 0.179608C-0.0555705 0.419085 -0.0555705 0.807353 0.166712 1.04683L4.59752 5.82039Z" fill="white"/>
    </symbol>
    <symbol id="arrow-right" width="24" height="24" viewBox="0 0 24 24" fill="none" xmlns="http://www.w3.org/2000/svg">
        <path fill-rule="evenodd" clip-rule="evenodd" d="M15.7605 11.356C16.0798 11.7117 16.0798 12.2883 15.7605 12.644L9.39578 19.7333C9.07647 20.0889 8.55878 20.0889 8.23948 19.7333C7.92018 19.3776 7.92018 18.801 8.23948 18.4453L14.0261 12L8.23948 5.55467C7.92017 5.19901 7.92017 4.62239 8.23948 4.26674C8.55878 3.91109 9.07647 3.91109 9.39577 4.26674L15.7605 11.356Z" fill="white"/>
    </symbol>
    <symbol id="persons" width="16" height="16" viewBox="0 0 16 16" fill="none" xmlns="http://www.w3.org/2000/svg">
        <path d="M5.99967 1.33337C4.25301 1.33337 2.83301 2.75337 2.83301 4.50004C2.83301 6.21337 4.17301 7.60004 5.91967 7.66004C5.97301 7.65337 6.02634 7.65337 6.06634 7.66004C6.07967 7.66004 6.08634 7.66004 6.09967 7.66004C6.10634 7.66004 6.10634 7.66004 6.11301 7.66004C7.81967 7.60004 9.15967 6.21337 9.16634 4.50004C9.16634 2.75337 7.74634 1.33337 5.99967 1.33337Z" fill="white"/>
        <path d="M9.38762 9.4333C7.52762 8.1933 4.49428 8.1933 2.62095 9.4333C1.77428 9.99996 1.30762 10.7666 1.30762 11.5866C1.30762 12.4066 1.77428 13.1666 2.61428 13.7266C3.54762 14.3533 4.77428 14.6666 6.00095 14.6666C7.22762 14.6666 8.45428 14.3533 9.38762 13.7266C10.2276 13.16 10.6943 12.4 10.6943 11.5733C10.6876 10.7533 10.2276 9.9933 9.38762 9.4333Z" fill="white"/>
        <path d="M13.3263 4.89344C13.4329 6.18677 12.5129 7.32011 11.2396 7.47344C11.2329 7.47344 11.2329 7.47344 11.2263 7.47344H11.2063C11.1663 7.47344 11.1263 7.47344 11.0929 7.48677C10.4462 7.52011 9.85292 7.31344 9.40625 6.93344C10.0929 6.32011 10.4863 5.40011 10.4063 4.40011C10.3596 3.86011 10.1729 3.36677 9.89292 2.94677C10.1463 2.82011 10.4396 2.74011 10.7396 2.71344C12.0463 2.60011 13.2129 3.57344 13.3263 4.89344Z" fill="white"/>
        <path d="M14.6605 11.0599C14.6071 11.7066 14.1938 12.2666 13.5005 12.6466C12.8338 13.0133 11.9938 13.1866 11.1605 13.1666C11.6405 12.7333 11.9205 12.1933 11.9738 11.6199C12.0405 10.7933 11.6471 9.99994 10.8605 9.36661C10.4138 9.01327 9.89382 8.73327 9.32715 8.52661C10.8005 8.09994 12.6538 8.38661 13.7938 9.30661C14.4071 9.79994 14.7205 10.4199 14.6605 11.0599Z" fill="white"/>
    </symbol>
    <symbol id="wallet" width="24" height="24" viewBox="0 0 24 24" fill="none" xmlns="http://www.w3.org/2000/svg">
        <path d="M2 14.9273C2 16.3529 2 17.0657 2.30865 17.6102C2.58015 18.0891 3.01337 18.4785 3.54622 18.7226C4.15199 19 4.94498 19 6.53097 19H16.5841C18.1701 19 18.9631 19 19.5688 18.7226C20.1017 18.4785 20.5349 18.0891 20.8064 17.6102C21.0428 17.1931 21.0981 16.6773 21.1111 15.8182H16.1593C14.8398 15.8182 14.1801 15.8182 13.6597 15.6244C12.9658 15.3661 12.4145 14.8705 12.1271 14.2468C11.9115 13.779 11.9115 13.186 11.9115 12C11.9115 10.814 11.9115 10.221 12.1271 9.75317C12.4145 9.12946 12.9658 8.63393 13.6597 8.37558C14.1801 8.18182 14.8398 8.18182 16.1593 8.18182H21.1111C21.0981 7.32266 21.0428 6.80689 20.8064 6.38984C20.5349 5.91088 20.1017 5.52148 19.5688 5.27744C18.9631 5 18.1701 5 16.5841 5H6.53097C4.94498 5 4.15199 5 3.54622 5.27744C3.01337 5.52148 2.58015 5.91088 2.30865 6.38984C2 6.93435 2 7.64714 2 9.07273V14.9273Z" fill="white"/>
        <path fill-rule="evenodd" clip-rule="evenodd" d="M13.1504 12.1591C13.1504 13.0501 13.1504 13.4956 13.3434 13.8359C13.513 14.1352 13.7838 14.3786 14.1168 14.5311C14.4954 14.7045 14.9911 14.7045 15.9823 14.7045H19.1681C20.1594 14.7045 20.655 14.7045 21.0336 14.5311C21.3666 14.3786 21.6374 14.1352 21.8071 13.8359C22 13.4956 22 13.0501 22 12.1591V11.8409C22 10.9499 22 10.5044 21.8071 10.1641C21.6374 9.86476 21.3666 9.62138 21.0336 9.46885C20.655 9.29545 20.1594 9.29545 19.1681 9.29545H15.9823C14.9911 9.29545 14.4954 9.29545 14.1168 9.46885C13.7838 9.62138 13.513 9.86476 13.3434 10.1641C13.1504 10.5044 13.1504 10.9499 13.1504 11.8409V12.1591ZM17.5752 12C17.5752 11.2971 16.9413 10.7273 16.1593 10.7273C15.3773 10.7273 14.7434 11.2971 14.7434 12C14.7434 12.7029 15.3773 13.2727 16.1593 13.2727C16.9413 13.2727 17.5752 12.7029 17.5752 12Z" fill="white"/>
    </symbol>
    <symbol id="cross" width="16" height="16" viewBox="0 0 16 16" fill="none" xmlns="http://www.w3.org/2000/svg">
        <path fill-rule="evenodd" clip-rule="evenodd" d="M0.292893 0.292893C0.683417 -0.0976311 1.31658 -0.0976311 1.70711 0.292893L8 6.58579L14.2929 0.292893C14.6834 -0.0976311 15.3166 -0.0976311 15.7071 0.292893C16.0976 0.683417 16.0976 1.31658 15.7071 1.70711L9.41421 8L15.7071 14.2929C16.0976 14.6834 16.0976 15.3166 15.7071 15.7071C15.3166 16.0976 14.6834 16.0976 14.2929 15.7071L8 9.41421L1.70711 15.7071C1.31658 16.0976 0.683417 16.0976 0.292893 15.7071C-0.0976311 15.3166 -0.0976311 14.6834 0.292893 14.2929L6.58579 8L0.292893 1.70711C-0.0976311 1.31658 -0.0976311 0.683417 0.292893 0.292893Z" fill="white"/>
    </symbol>
    <symbol id="handshake" width="24" height="24" viewBox="0 0 24 24" fill="none" xmlns="http://www.w3.org/2000/svg">
        <path d="M17.6001 4C19.2641 4 20.4001 5.252 20.4001 6.80001C20.4001 8.24401 19.4134 9.43201 17.9241 9.58001C17.8168 9.5949 17.7085 9.60158 17.6001 9.60001C15.9361 9.60001 14.8001 8.34801 14.8001 6.80001C14.8 6.62108 14.8166 6.44254 14.8495 6.26667C15.0775 4.976 16.1335 4 17.6001 4Z" fill="white"/>
        <path d="M21.8828 19.8828C21.9579 19.8078 22 19.7061 22 19.6V19.5871C22 17.9852 22.0002 9.8822 18.1467 10.2066C16.764 10.3266 16.32 11.1133 16.004 12.0813C15.9439 12.2654 15.8886 12.4559 15.8325 12.6493C15.5932 13.4735 15.3382 14.3516 14.632 15.0147L14.524 15.1107C14.3813 15.2238 14.2317 15.328 14.076 15.4227C14.0238 15.4586 13.9689 15.4907 13.912 15.5187C13.8936 15.5292 13.8752 15.538 13.8557 15.5473C13.8455 15.5522 13.835 15.5572 13.824 15.5627C13.3839 15.79 12.9049 15.9325 12.412 15.9827H12.38C12.2561 15.9987 12.1281 15.9987 12.0041 15.9987C11.8801 15.9987 11.7521 15.9947 11.6321 15.9827C11.6074 16.2544 11.5967 16.5272 11.6001 16.8C11.5992 16.8272 11.6037 16.8542 11.6135 16.8796C11.6233 16.905 11.6381 16.9281 11.657 16.9476C11.6759 16.9672 11.6986 16.9827 11.7236 16.9933C11.7486 17.0039 11.7755 17.0093 11.8027 17.0093H12.396C12.4231 17.0089 12.45 17.0141 12.4749 17.0245C12.4999 17.0349 12.5225 17.0504 12.5412 17.0699C12.56 17.0894 12.5745 17.1125 12.584 17.1379C12.5934 17.1633 12.5975 17.1903 12.596 17.2173C12.576 17.6046 12.576 17.9927 12.596 18.38C12.648 18.376 12.7001 18.372 12.748 18.364C12.912 18.348 13.072 18.32 13.228 18.292C13.2709 18.2834 13.3184 18.2725 13.3625 18.2625C13.4006 18.2537 13.4362 18.2456 13.464 18.24C13.5135 18.2301 13.5603 18.2175 13.6088 18.2044C13.6191 18.2016 13.6295 18.1988 13.64 18.196C13.7307 18.172 13.8027 18.152 13.9067 18.12C14.0107 18.088 14.1187 18.052 14.2147 18.016C14.2309 18.0099 14.2468 18.004 14.2625 17.9982C14.3405 17.9693 14.4149 17.9417 14.4947 17.904C14.5285 17.888 14.5623 17.8727 14.596 17.8575C14.6578 17.8295 14.7191 17.8018 14.7787 17.7707C15.0666 17.6337 15.3435 17.4746 15.6067 17.2947C15.6574 17.6479 15.6801 18.0045 15.6747 18.3613C15.6747 18.7027 15.656 19.236 15.6307 19.636C15.6276 19.6827 15.6341 19.7295 15.6499 19.7736C15.6656 19.8177 15.6903 19.858 15.7223 19.8921C15.7543 19.9263 15.793 19.9535 15.836 19.972C15.8789 19.9906 15.9252 20.0001 15.972 20H21.6C21.7061 20 21.8078 19.9579 21.8828 19.8828Z" fill="white"/>
        <path d="M6.39995 4C4.73729 4 3.59997 5.252 3.59997 6.80001C3.59997 8.24401 4.5893 9.43201 6.07595 9.58001C6.18329 9.59485 6.2916 9.60154 6.39995 9.60001C8.06394 9.60001 9.19994 8.34801 9.19994 6.80001C9.20091 6.62117 9.18528 6.44262 9.15327 6.26667C8.92661 4.976 7.86661 4 6.39995 4Z" fill="white"/>
        <path d="M12.4386 18.3853C12.4922 18.3854 12.5457 18.3814 12.5986 18.3733L12.5999 18.3693C12.5796 17.9824 12.5796 17.5948 12.5999 17.208C12.6014 17.1809 12.5973 17.1538 12.5879 17.1283C12.5785 17.1029 12.564 17.0797 12.5452 17.06C12.5265 17.0404 12.5039 17.0249 12.4789 17.0143C12.454 17.0037 12.4271 16.9984 12.3999 16.9986H11.8013C11.7483 16.9986 11.6975 16.9778 11.6599 16.9406C11.6222 16.9034 11.6008 16.8529 11.6001 16.8C11.5978 16.5285 11.6092 16.257 11.6346 15.9866C11.1067 15.9396 10.5938 15.7863 10.1266 15.536C10.052 15.5008 9.97987 15.4607 9.91063 15.416C9.90215 15.4107 9.89378 15.4056 9.8855 15.4006C9.84298 15.3746 9.80281 15.3501 9.76263 15.32C9.69063 15.2745 9.62119 15.2251 9.55463 15.172C8.70783 14.4956 8.4303 13.5425 8.17072 12.6511C8.1115 12.4477 8.05321 12.2476 7.9893 12.0546C7.68264 11.0999 7.23331 10.3213 5.85598 10.2053C1.99978 9.88226 1.99996 17.9758 2 19.5854V19.6C2 19.706 2.04214 19.8078 2.11716 19.8828C2.19217 19.9578 2.29391 20 2.4 20H8.0253C8.07375 19.9999 8.12166 19.9899 8.16605 19.9705C8.21043 19.951 8.25033 19.9227 8.28325 19.8871C8.31616 19.8516 8.34139 19.8096 8.35734 19.7639C8.3733 19.7181 8.37964 19.6696 8.37597 19.6213C8.35064 19.228 8.3333 18.7 8.3333 18.3586C8.3277 18.0018 8.35044 17.6452 8.4013 17.292C8.46397 17.3413 8.53064 17.3853 8.5973 17.4253C8.61953 17.4386 8.64205 17.452 8.66457 17.4653C8.7096 17.492 8.75464 17.5186 8.7973 17.5453C8.8613 17.5853 8.9293 17.6213 9.0013 17.6573C9.08022 17.7032 9.16169 17.7446 9.2453 17.7813C9.29498 17.8054 9.34665 17.8279 9.39617 17.8495C9.43702 17.8673 9.4764 17.8844 9.51196 17.9013C9.5639 17.9259 9.617 17.9465 9.6705 17.9673C9.69803 17.9779 9.72566 17.9886 9.7533 18C9.92869 18.0746 10.1097 18.1352 10.2946 18.1813L10.5506 18.2413C10.6306 18.2613 10.7066 18.2773 10.7866 18.2933C10.9426 18.3213 11.1026 18.3493 11.2666 18.3653C11.3146 18.3733 11.3666 18.3813 11.4186 18.3813H11.5106C11.5303 18.3825 11.5503 18.3842 11.5706 18.3859C11.6147 18.3895 11.66 18.3933 11.7066 18.3933H11.7133C11.8093 18.4013 11.9053 18.4013 12.0053 18.4013C12.0558 18.4013 12.1053 18.3993 12.1543 18.3972C12.2023 18.3952 12.2498 18.3933 12.2973 18.3933H12.3053C12.3312 18.3933 12.3557 18.3911 12.3789 18.389C12.3998 18.3871 12.4197 18.3853 12.4386 18.3853Z" fill="white"/>
    </symbol>
    <symbol id="support" width="24" height="24" viewBox="0 0 24 24" fill="none" xmlns="http://www.w3.org/2000/svg">
        <path fill-rule="evenodd" clip-rule="evenodd" d="M11.9814 4.14264C11.3842 4.13186 10.7908 4.23894 10.235 4.45777C9.67926 4.67661 9.17211 5.00289 8.74259 5.41794C8.31308 5.83299 7.96962 6.32868 7.73189 6.87662C7.49416 7.42456 7.36681 8.014 7.35714 8.61121V14.8569C7.35714 15.2358 7.20663 15.5992 6.93872 15.8671C6.67081 16.135 6.30745 16.2855 5.92857 16.2855H4.14286C3.57454 16.2855 3.02949 16.0597 2.62763 15.6579C2.22576 15.256 2 14.711 2 14.1426V11.2855C2 10.7172 2.22576 10.1721 2.62763 9.77027C3.02949 9.3684 3.57454 9.14264 4.14286 9.14264H5.21429V8.5855C5.22732 7.70749 5.41319 6.84064 5.76128 6.03448C6.10936 5.22831 6.61285 4.49861 7.24298 3.88705C7.87311 3.27549 8.61755 2.79405 9.43376 2.47023C10.25 2.14641 11.122 1.98655 12 1.99978C12.878 1.98655 13.75 2.14641 14.5662 2.47023C15.3825 2.79405 16.1269 3.27549 16.757 3.88705C17.3872 4.49861 17.8906 5.22831 18.2387 6.03448C18.5868 6.84064 18.7727 7.70749 18.7857 8.5855V9.14264H19.8571C20.4255 9.14264 20.9705 9.3684 21.3724 9.77027C21.7742 10.1721 22 10.7172 22 11.2855V14.1426C22 14.711 21.7742 15.256 21.3724 15.6579C20.9705 16.0597 20.4255 16.2855 19.8571 16.2855H18.7857V16.9998C18.7859 17.9651 18.4306 18.8968 17.7877 19.6169C17.1448 20.337 16.2592 20.7952 15.3 20.9041C15.1137 21.2367 14.8421 21.5135 14.5131 21.7061C14.1842 21.8987 13.8098 22.0001 13.4286 21.9998H11.2857C10.7174 21.9998 10.1723 21.774 9.77049 21.3722C9.36862 20.9703 9.14286 20.4252 9.14286 19.8569C9.14286 19.2886 9.36862 18.7436 9.77049 18.3417C10.1723 17.9398 10.7174 17.7141 11.2857 17.7141H13.4286C14.2029 17.7141 14.8814 18.1241 15.2571 18.7398C15.6509 18.6493 16.0023 18.4279 16.254 18.1119C16.5057 17.7958 16.6428 17.4038 16.6429 16.9998V8.60978C16.6331 8.0095 16.5044 7.41711 16.2642 6.86686C16.0241 6.31661 15.6773 5.81942 15.2438 5.40402C14.8104 4.98863 14.2989 4.66327 13.7389 4.44677C13.1789 4.23026 12.5816 4.12689 11.9814 4.14264Z" fill="white"/>
    </symbol>

</svg>